<svg width="120" height="120" viewBox="0 0 120 120" fill="none" xmlns="http://www.w3.org/2000/svg">
<g filter="url(#filter0_d_2272_182)">
<path fill-rule="evenodd" clip-rule="evenodd" d="M33.5147 29.5147C30 33.0294 30 38.6863 30 50V62C30 73.3137 30 78.9706 33.5147 82.4853C37.0294 86 42.6863 86 54 86H66C77.3137 86 82.9706 86 86.4853 82.4853C90 78.9706 90 73.3137 90 62V50C90 38.6863 90 33.0294 86.4853 29.5147C82.9706 26 77.3137 26 66 26H54C42.6863 26 37.0294 26 33.5147 29.5147ZM74.4536 51.1059C75.1309 51.1672 75.7056 51.6259 75.9163 52.2739C76.127 52.9233 75.9322 53.6325 75.4202 54.0818L68.4374 60.2047L70.4963 69.2727C70.6469 69.9394 70.3881 70.6289 69.8349 71.0288C69.2829 71.4287 68.5483 71.4607 67.964 71.1116L60 66.3488L52.0346 71.1116C51.7653 71.2727 51.4637 71.3528 51.1625 71.3528C50.8119 71.3528 50.4625 71.2449 50.1651 71.0288C49.6119 70.6289 49.3531 69.9394 49.5038 69.2727L51.5626 60.2047L44.5798 54.0818C44.0676 53.6325 43.873 52.9218 44.0837 52.2739C44.2957 51.6271 44.8692 51.1684 45.5464 51.1059L54.7853 50.2672L58.436 41.7202C58.7039 41.0923 59.3174 40.687 60 40.687C60.6827 40.687 61.2959 41.0923 61.5655 41.7202L65.2162 50.2672L74.4536 51.1059Z" fill="white"/>
</g>
<defs>
<filter id="filter0_d_2272_182" x="0" y="0" width="120" height="120" filterUnits="userSpaceOnUse" color-interpolation-filters="sRGB">
<feFlood flood-opacity="0" result="BackgroundImageFix"/>
<feColorMatrix in="SourceAlpha" type="matrix" values="0 0 0 0 0 0 0 0 0 0 0 0 0 0 0 0 0 0 127 0" result="hardAlpha"/>
<feOffset dy="4"/>
<feGaussianBlur stdDeviation="15"/>
<feComposite in2="hardAlpha" operator="out"/>
<feColorMatrix type="matrix" values="0 0 0 0 0.666667 0 0 0 0 0.545098 0 0 0 0 0.835294 0 0 0 0.2 0"/>
<feBlend mode="normal" in2="BackgroundImageFix" result="effect1_dropShadow_2272_182"/>
<feBlend mode="normal" in="SourceGraphic" in2="effect1_dropShadow_2272_182" result="shape"/>
</filter>
</defs>
</svg>
