<svg width="120" height="120" viewBox="0 0 120 120" fill="none" xmlns="http://www.w3.org/2000/svg">
<g filter="url(#filter0_d_2272_180)">
<path fill-rule="evenodd" clip-rule="evenodd" d="M33.5147 29.5147C30 33.0294 30 38.6863 30 50V62C30 73.3137 30 78.9706 33.5147 82.4853C37.0294 86 42.6863 86 54 86H66C77.3137 86 82.9706 86 86.4853 82.4853C90 78.9706 90 73.3137 90 62V50C90 38.6863 90 33.0294 86.4853 29.5147C82.9706 26 77.3137 26 66 26H54C42.6863 26 37.0294 26 33.5147 29.5147ZM59.3149 41.4176C63.4731 41.2185 67.5453 42.6481 70.6667 45.4027C72.3063 46.8846 73.6226 48.6888 74.5334 50.7025C75.4442 52.7162 75.9299 54.8961 75.96 57.106C75.9902 59.3158 75.5642 61.5082 74.7087 63.546C73.8532 65.5838 72.5866 67.4232 70.988 68.9493C69.7729 70.0743 68.1718 70.6892 66.516 70.6667H53.4933C51.744 70.6708 50.0634 69.9864 48.8147 68.7613C45.8584 65.8302 44.1609 61.8623 44.0827 57.7C44.0044 53.5377 45.5515 49.5088 48.3956 46.4687C51.2396 43.4285 55.1566 41.6166 59.3149 41.4176ZM69.161 62.2963C69.4892 62.1655 69.7521 61.9098 69.892 61.5853H69.8853C69.9546 61.4245 69.9915 61.2516 69.9939 61.0765C69.9964 60.9014 69.9643 60.7276 69.8995 60.5649C69.8348 60.4022 69.7386 60.2539 69.6165 60.1283C69.4944 60.0028 69.3488 59.9026 69.188 59.8333L62.6347 57.0147C62.5648 56.4318 62.3046 55.8883 61.8943 55.4685C61.4841 55.0486 60.9468 54.7759 60.3657 54.6925C59.7847 54.6091 59.1924 54.7198 58.6806 55.0073C58.1689 55.2949 57.7663 55.7433 57.5354 56.2829C57.3044 56.8226 57.258 57.4234 57.4033 57.9921C57.5486 58.5609 57.8774 59.0658 58.3389 59.4286C58.8004 59.7913 59.3687 59.9917 59.9557 59.9986C60.5426 60.0055 61.1155 59.8185 61.5853 59.4667L68.1413 62.2827C68.466 62.4221 68.8327 62.427 69.161 62.2963ZM69.7657 57.0627C70.0448 57.2797 70.3986 57.3771 70.7493 57.3333C70.9235 57.3118 71.0917 57.256 71.2443 57.1693C71.3969 57.0825 71.5308 56.9665 71.6385 56.8279C71.7461 56.6893 71.8253 56.5308 71.8716 56.3615C71.9178 56.1922 71.9302 56.0154 71.908 55.8413C71.5841 53.1922 70.3786 50.7291 68.4853 48.848C66.2345 46.5968 63.1816 45.332 59.9983 45.3318C56.8149 45.3315 53.7618 46.5959 51.5107 48.8467C49.2595 51.0975 47.9947 54.1504 47.9944 57.3337C47.9942 60.5171 49.2585 63.5702 51.5093 65.8213C51.688 66 51.8693 66.172 52.0573 66.3373C52.3225 66.5714 52.6699 66.6906 53.023 66.6686C53.376 66.6466 53.7059 66.4852 53.94 66.22C54.1741 65.9548 54.2933 65.6074 54.2712 65.2544C54.2492 64.9013 54.0879 64.5714 53.8227 64.3373C53.7834 64.3013 53.7438 64.2657 53.7043 64.2303C53.5978 64.1345 53.492 64.0395 53.3947 63.9373C51.6442 62.1869 50.6609 59.8128 50.6609 57.3373C50.6609 54.8619 51.6442 52.4878 53.3947 50.7373C55.1451 48.9869 57.5192 48.0035 59.9947 48.0035C62.4701 48.0035 64.8442 48.9869 66.5947 50.7373C68.0695 52.199 69.0089 54.1149 69.2613 56.176C69.3053 56.5268 69.4867 56.8457 69.7657 57.0627Z" fill="white"/>
</g>
<defs>
<filter id="filter0_d_2272_180" x="0" y="0" width="120" height="120" filterUnits="userSpaceOnUse" color-interpolation-filters="sRGB">
<feFlood flood-opacity="0" result="BackgroundImageFix"/>
<feColorMatrix in="SourceAlpha" type="matrix" values="0 0 0 0 0 0 0 0 0 0 0 0 0 0 0 0 0 0 127 0" result="hardAlpha"/>
<feOffset dy="4"/>
<feGaussianBlur stdDeviation="15"/>
<feComposite in2="hardAlpha" operator="out"/>
<feColorMatrix type="matrix" values="0 0 0 0 0.666667 0 0 0 0 0.545098 0 0 0 0 0.835294 0 0 0 0.2 0"/>
<feBlend mode="normal" in2="BackgroundImageFix" result="effect1_dropShadow_2272_180"/>
<feBlend mode="normal" in="SourceGraphic" in2="effect1_dropShadow_2272_180" result="shape"/>
</filter>
</defs>
</svg>
