<svg width="1208" height="618" viewBox="0 0 1208 618" fill="none" xmlns="http://www.w3.org/2000/svg">
<path d="M1334.44 322.79C1311.53 322.79 1289.93 328.168 1270.58 337.476C1272.22 329.72 1273.11 321.684 1273.11 313.431C1273.11 249.385 1221.2 197.455 1157.17 197.455C1130.93 197.455 1106.81 206.28 1087.38 220.966C1049.81 126.352 957.533 59.4311 849.556 59.4311C800.398 59.4311 754.494 73.3289 715.506 97.3608C701.954 41.5153 651.779 0 591.778 0C527.378 0 474.279 47.8221 465.686 109.873C451.308 106.986 436.435 105.435 421.206 105.435C296.83 105.435 196.009 206.28 196.009 330.686C196.009 341.519 197.039 352.086 198.514 362.499C191.407 358.837 183.475 356.561 174.932 356.561C146.559 356.561 123.575 379.411 123.245 407.715C117.588 406.774 111.804 406.176 105.88 406.176C47.4038 406.176 0 453.592 0 512.082C0 570.572 47.4038 618 105.88 618H1334.42C1415.92 618 1482 551.919 1482 470.388C1482 388.871 1415.93 322.79 1334.44 322.79Z" fill="url(#paint0_linear_2226_2039)"/>
<defs>
<linearGradient id="paint0_linear_2226_2039" x1="741" y1="95" x2="741" y2="618" gradientUnits="userSpaceOnUse">
<stop stop-color="white" stop-opacity="0"/>
<stop offset="1" stop-color="white"/>
</linearGradient>
</defs>
</svg>
