<svg width="65" height="65" viewBox="0 0 65 65" fill="none" xmlns="http://www.w3.org/2000/svg">
<circle cx="41" cy="41" r="24" fill="#D6E7FB"/>
<g clip-path="url(#clip0_4001_4280)">
<path d="M24.6666 11.9866H24.1666H19.8094C19.6273 11.9866 19.4757 12.1347 19.475 12.3248C19.4712 15.3415 21.9352 17.8449 25 17.8449C28.0666 17.8449 30.5288 15.3397 30.5249 12.3237C30.5243 12.1353 30.3732 11.9867 30.1906 11.9866C30.1905 11.9866 30.1905 11.9866 30.1905 11.9866H25.8333H25.3333V11.4866V10.7533C25.3333 10.1817 25.7163 9.6952 26.2445 9.51626C27.908 8.95195 28.9866 7.32981 28.8657 5.57099C28.7339 3.65684 27.1887 2.11215 25.274 1.97924L24.6666 11.9866ZM24.6666 11.9866V11.4866M24.6666 11.9866V11.4866M24.6666 11.4866V10.7533M24.6666 11.4866V10.7533M28.2008 5.61666L28.2009 5.61702C28.3007 7.07191 27.4104 8.41686 26.0305 8.88406L28.2008 5.61666ZM28.2008 5.61666C28.0909 4.03047 26.8149 2.75409 25.2283 2.64515M28.2008 5.61666L25.2283 2.64515M24.6666 10.7533C24.6666 9.91695 25.2091 9.16291 26.0304 8.88408L24.6666 10.7533ZM25.2283 2.64515C23.3468 2.51407 21.7917 3.99957 21.7917 5.84498C21.7917 6.02926 21.6426 6.17831 21.4583 6.17831C21.274 6.17831 21.125 6.02925 21.125 5.84498C21.125 3.65035 22.974 1.82128 25.2739 1.97924L25.2283 2.64515ZM25.2283 2.64515C25.2284 2.64515 25.2284 2.64516 25.2285 2.64516L25.1937 3.14395L25.2283 2.64515ZM37.1431 11.985C37.1249 11.986 37.1041 11.9867 37.0833 11.9867H33.5236C33.3395 11.9867 33.1909 12.1359 33.1912 12.3189C33.1971 16.8029 29.546 20.5118 25 20.5118C20.4565 20.5118 16.8028 16.8053 16.8088 12.3189C16.809 12.1358 16.6605 11.9867 16.4764 11.9867H12.9167C12.8958 11.9867 12.875 11.986 12.8569 11.985C12.8541 11.9869 12.8512 11.989 12.8482 11.9912C12.6916 12.1034 12.3728 12.393 11.6214 13.1319C10.8343 13.906 9.60554 15.1391 7.64859 17.103C5.92695 18.8307 3.64171 21.1241 0.597692 24.168M37.1431 11.985L0.597692 24.168M37.1431 11.985C37.1459 11.9869 37.1488 11.989 37.1519 11.9912C37.3085 12.1034 37.6272 12.393 38.3786 13.132C39.1659 13.9062 40.3948 15.1394 42.3521 17.1037C44.0736 18.8313 46.3587 21.1245 49.4022 24.168C49.5325 24.2983 49.5324 24.5094 49.4026 24.6394C49.4025 24.6394 49.4025 24.6394 49.4025 24.6394L42.3536 31.6883C42.2241 31.8178 42.0123 31.818 41.8826 31.6883C41.472 31.2777 41.1432 30.9531 40.8788 30.6922C40.4748 30.2935 40.2214 30.0434 40.0566 29.8617C39.9223 29.7135 39.8903 29.6558 39.8818 29.6366C39.8817 29.6364 39.8749 29.6345 39.8749 29.5425V24.0515C39.8749 23.3666 39.3571 22.7394 38.6287 22.6926C37.8534 22.6429 37.2083 23.2575 37.2083 24.0231C37.2083 24.1755 37.208 24.2443 37.2076 24.359C37.2067 24.5902 37.2051 25.0082 37.2036 26.6744C37.2012 29.1617 37.1989 34.4282 37.1989 46.0022C37.1989 47.1029 36.3022 47.9991 35.201 47.9991L25.0002 48.0147L17.9898 48.0254L15.6786 48.029L15.0305 48.03L14.8011 48.0303C13.7011 48.0303 12.8011 47.1417 12.8011 46.0303C12.8011 34.6478 12.7987 29.2829 12.7964 26.6986C12.7946 24.7904 12.7929 24.3996 12.7921 24.2211C12.7919 24.1573 12.7917 24.1206 12.7917 24.0515C12.7917 23.3666 12.2738 22.7394 11.5455 22.6926C10.7702 22.6429 10.125 23.2575 10.125 24.0231V29.5425C10.125 29.5926 10.1233 29.6138 10.1217 29.6251C10.1208 29.6316 10.1202 29.633 10.1187 29.6365C10.1108 29.6544 10.0799 29.7109 9.94609 29.8586C9.78169 30.0401 9.52794 30.2906 9.12202 30.6913C8.85753 30.9523 8.52842 31.2772 8.11732 31.6883C7.98748 31.8181 7.77574 31.8177 7.64631 31.6883L0.597437 24.6394M37.1431 11.985L0.597437 24.6394M0.597692 24.168C0.46745 24.2983 0.467526 24.5094 0.597381 24.6394M0.597692 24.168L0.597381 24.6394M0.597381 24.6394C0.597399 24.6394 0.597418 24.6394 0.597437 24.6394M0.597381 24.6394L0.597437 24.6394" stroke="#161C2D"/>
</g>
<defs>
<clipPath id="clip0_4001_4280">
<rect width="50" height="50" fill="white"/>
</clipPath>
</defs>
</svg>
