<svg width="75" height="75" viewBox="0 0 75 75" fill="none" xmlns="http://www.w3.org/2000/svg">
<circle cx="37.5" cy="37.5" r="37.5" fill="url(#paint0_linear_4161_2042)"/>
<path opacity="0.98" fill-rule="evenodd" clip-rule="evenodd" d="M37.6988 20C38.2325 20 38.7663 20 39.3001 20C41.3508 22.2085 43.4477 24.3863 45.5909 26.5333C45.703 26.8351 45.7412 27.1462 45.7053 27.4667C44.559 27.428 43.4152 27.4668 42.2739 27.5833C42.1595 27.7 42.0452 27.8167 41.9308 27.9333C41.8545 29.8 41.7783 31.6667 41.702 33.5333C41.5304 33.6794 41.3397 33.796 41.1301 33.8833C39.3001 34.0389 37.47 34.0389 35.6399 33.8833C35.5256 33.7667 35.4112 33.65 35.2968 33.5333C35.2206 31.6667 35.1443 29.8 35.068 27.9333C34.9537 27.8167 34.8393 27.7 34.7249 27.5833C33.5073 27.4668 32.2872 27.4279 31.0648 27.4667C31.0289 27.1462 31.0671 26.8351 31.1792 26.5333C33.3284 24.302 35.5016 22.1242 37.6988 20Z" fill="white"/>
<path opacity="0.97" fill-rule="evenodd" clip-rule="evenodd" d="M21 37.9667C21 37.5778 21 37.1889 21 36.8C23.2415 34.6305 25.4528 32.4139 27.634 30.15C27.8508 30.0374 28.0796 29.9985 28.3203 30.0334C28.3203 34.9334 28.3203 39.8334 28.3203 44.7334C28.0061 44.77 27.7011 44.731 27.4052 44.6167C25.3833 42.2822 23.2482 40.0655 21 37.9667Z" fill="white"/>
<path opacity="0.969" fill-rule="evenodd" clip-rule="evenodd" d="M48.679 30.2668C48.9197 30.2319 49.1485 30.2708 49.3653 30.3834C51.7019 32.6497 53.9133 35.022 55.9993 37.5001C53.7149 39.9468 51.3894 42.3579 49.0222 44.7334C48.6818 39.9465 48.5674 35.1243 48.679 30.2668Z" fill="white"/>
<path opacity="0.969" fill-rule="evenodd" clip-rule="evenodd" d="M39.0717 54.9999C38.6142 54.9999 38.1567 54.9999 37.6992 54.9999C35.5243 52.7427 33.3893 50.4483 31.2939 48.1166C31.3867 47.8961 31.5392 47.7405 31.7515 47.6499C32.827 47.6098 33.8946 47.4931 34.9541 47.2999C35.1383 45.2888 35.2527 43.2667 35.2972 41.2333C35.4116 41.1166 35.526 40.9999 35.6403 40.8833C37.5467 40.7277 39.453 40.7277 41.3593 40.8833C41.4737 40.9999 41.5881 41.1166 41.7024 41.2333C41.7439 43.3126 41.8583 45.3738 42.0456 47.4166C43.0368 47.4943 44.0282 47.5722 45.0194 47.6499C45.2765 47.708 45.5053 47.8247 45.7057 47.9999C43.4895 50.3382 41.2782 52.6715 39.0717 54.9999Z" fill="white"/>
<defs>
<linearGradient id="paint0_linear_4161_2042" x1="38" y1="-5" x2="38" y2="83.5" gradientUnits="userSpaceOnUse">
<stop offset="0.0390253" stop-color="#54D8FC"/>
<stop offset="1" stop-color="#0058B3"/>
</linearGradient>
</defs>
</svg>
