<svg width="75" height="75" viewBox="0 0 75 75" fill="none" xmlns="http://www.w3.org/2000/svg">
<circle cx="37.5" cy="37.5" r="37.5" fill="url(#paint0_linear_4161_2039)"/>
<g clip-path="url(#clip0_4161_2039)">
<path d="M30.634 30.8583C33.1624 30.8583 35.5201 31.6023 37.5004 32.8823C39.4808 31.6023 41.8385 30.8583 44.3668 30.8583C45.6778 30.8583 46.9431 31.0583 48.1336 31.4293C48.1184 25.5787 43.3544 20.8237 37.5004 20.8237C31.6465 20.8237 26.8824 25.5787 26.8672 31.4292C28.0577 31.0583 29.3229 30.8583 30.634 30.8583Z" fill="white"/>
<path d="M49.8324 34.4253C48.9605 38.0486 46.5296 41.0713 43.2913 42.7403C43.3079 43.0058 43.3174 43.2732 43.3174 43.5428C43.3174 47.2197 41.7442 50.5356 39.2363 52.8545C40.7583 53.6963 42.5071 54.1764 44.366 54.1764C50.2293 54.1764 54.9996 49.4062 54.9996 43.5428C54.9996 39.677 52.9258 36.2868 49.8324 34.4253Z" fill="white"/>
<path d="M37.5002 42.0906C38.7501 42.0906 39.95 41.8731 41.0649 41.4753C40.5894 39.0718 39.3016 36.9573 37.5002 35.4302C35.6989 36.9573 34.411 39.0717 33.9355 41.4753C35.0504 41.8732 36.2503 42.0906 37.5002 42.0906Z" fill="white"/>
<path d="M31.6822 43.5428C31.6822 43.2732 31.6916 43.0058 31.7083 42.7403C28.4701 41.0713 26.0391 38.0486 25.1671 34.4253C22.0738 36.2868 20 39.677 20 43.5428C20 49.4061 24.7702 54.1764 30.6336 54.1764C32.4925 54.1764 34.2413 53.6963 35.7633 52.8545C33.2554 50.5356 31.6822 47.2197 31.6822 43.5428Z" fill="white"/>
<path d="M41.2667 43.5708C40.0763 43.9418 38.8111 44.1417 37.5001 44.1417C36.1891 44.1417 34.9239 43.9417 33.7334 43.5708C33.7418 46.8076 35.2041 49.7086 37.5001 51.655C39.7961 49.7086 41.2583 46.8076 41.2667 43.5708Z" fill="white"/>
<path d="M32.0332 40.5749C32.6288 38.1 33.9517 35.9056 35.7628 34.231C34.2408 33.3893 32.4921 32.9092 30.6331 32.9092C29.3832 32.9092 28.1833 33.1266 27.0684 33.5246C27.6594 36.5123 29.5057 39.0539 32.0332 40.5749Z" fill="white"/>
<path d="M47.9308 33.5246C46.8158 33.1266 45.6159 32.9092 44.366 32.9092C42.5071 32.9092 40.7583 33.3892 39.2363 34.231C41.0473 35.9055 42.3703 38.0999 42.9659 40.5749C45.4934 39.0539 47.3397 36.5123 47.9308 33.5246Z" fill="white"/>
</g>
<defs>
<linearGradient id="paint0_linear_4161_2039" x1="38" y1="-5" x2="38" y2="83.5" gradientUnits="userSpaceOnUse">
<stop offset="0.0390253" stop-color="#54D8FC"/>
<stop offset="1" stop-color="#0058B3"/>
</linearGradient>
<clipPath id="clip0_4161_2039">
<rect width="35" height="35" fill="white" transform="translate(20 20)"/>
</clipPath>
</defs>
</svg>
