<svg width="75" height="75" viewBox="0 0 75 75" fill="none" xmlns="http://www.w3.org/2000/svg">
<circle cx="37.5" cy="37.5" r="37.5" fill="url(#paint0_linear_4161_2041)"/>
<path d="M54.3593 33.7659C54.1562 33.5627 53.9151 33.4015 53.6497 33.2916C53.3844 33.1816 53.0999 33.125 52.8127 33.125C52.5254 33.125 52.241 33.1816 51.9756 33.2916C51.7102 33.4015 51.4691 33.5627 51.266 33.7659L50.3145 34.7174C49.6773 31.7911 48.0593 29.1703 45.7288 27.2894C43.3983 25.4084 40.495 24.3801 37.5002 24.375C34.649 24.378 31.8784 25.3211 29.6175 27.0581C29.1551 27.4083 28.8509 27.9277 28.7715 28.5022C28.6922 29.0767 28.8444 29.6592 29.1945 30.1215C29.5446 30.5838 30.0641 30.8881 30.6386 30.9674C31.2131 31.0467 31.7955 30.8946 32.2578 30.5444C33.7605 29.3863 35.603 28.7556 37.5002 28.75C39.3342 28.7566 41.1197 29.3404 42.6033 30.4186C44.087 31.4968 45.1937 33.0147 45.7663 34.7571L44.3189 33.6035C44.0945 33.4241 43.837 33.2907 43.561 33.211C43.285 33.1312 42.9961 33.1066 42.7106 33.1386C42.4251 33.1706 42.1487 33.2585 41.8972 33.3974C41.6458 33.5363 41.4241 33.7234 41.245 33.948C41.0659 34.1726 40.9328 34.4303 40.8534 34.7064C40.7739 34.9824 40.7497 35.2714 40.782 35.5569C40.8143 35.8423 40.9026 36.1186 41.0418 36.3699C41.181 36.6212 41.3683 36.8426 41.5931 37.0215L47.0747 41.3965C47.4945 41.7323 48.0236 41.9014 48.5604 41.8715C49.0972 41.8415 49.6041 41.6146 49.984 41.2341L54.359 36.8591C54.5622 36.6561 54.7234 36.415 54.8334 36.1496C54.9434 35.8842 55 35.5998 55 35.3126C55 35.0253 54.9435 34.7408 54.8335 34.4755C54.7236 34.2101 54.5624 33.969 54.3593 33.7659Z" fill="white"/>
<path d="M42.7424 44.4558C41.2398 45.614 39.3973 46.2446 37.5001 46.2502C35.666 46.2436 33.8806 45.6598 32.3969 44.5816C30.9132 43.5034 29.8066 41.9855 29.2339 40.2431L30.6813 41.3967C30.9057 41.5761 31.1633 41.7095 31.4392 41.7892C31.7152 41.869 32.0042 41.8936 32.2897 41.8616C32.5752 41.8296 32.8516 41.7417 33.103 41.6028C33.3545 41.4639 33.5761 41.2768 33.7552 41.0522C33.9344 40.8276 34.0674 40.5699 34.1469 40.2939C34.2263 40.0178 34.2506 39.7288 34.2183 39.4433C34.1859 39.1579 34.0977 38.8816 33.9585 38.6303C33.8193 38.379 33.632 38.1576 33.4071 37.9787L27.9256 33.6037C27.5052 33.2692 26.9764 33.1009 26.44 33.1308C25.9036 33.1608 25.3968 33.3869 25.0162 33.7661L20.6412 38.1411C20.2329 38.5517 20.0041 39.1074 20.0049 39.6865C20.0057 40.2655 20.2361 40.8206 20.6455 41.23C21.055 41.6395 21.6101 41.8699 22.1891 41.8707C22.7682 41.8715 23.3239 41.6427 23.7345 41.2343L24.6861 40.2828C25.3233 43.2091 26.9411 45.8298 29.2716 47.7108C31.6021 49.5917 34.5053 50.62 37.5001 50.6252C40.3513 50.6222 43.1219 49.6791 45.3828 47.9421C45.8451 47.592 46.1494 47.0725 46.2287 46.498C46.308 45.9235 46.1559 45.3411 45.8058 44.8787C45.6324 44.6498 45.4156 44.4573 45.1679 44.3122C44.9201 44.167 44.6462 44.0721 44.3617 44.0328C43.7872 43.9535 43.2047 44.1056 42.7424 44.4558Z" fill="white"/>
<defs>
<linearGradient id="paint0_linear_4161_2041" x1="38" y1="-5" x2="38" y2="83.5" gradientUnits="userSpaceOnUse">
<stop offset="0.0390253" stop-color="#54D8FC"/>
<stop offset="1" stop-color="#0058B3"/>
</linearGradient>
</defs>
</svg>
