<svg width="75" height="75" viewBox="0 0 75 75" fill="none" xmlns="http://www.w3.org/2000/svg">
<circle cx="37.5" cy="37.5" r="37.5" fill="url(#paint0_linear_4161_2040)"/>
<g clip-path="url(#clip0_4161_2040)">
<path d="M22 44.0391V40.4213C22.6519 40.7759 23.3363 41.0669 24.0439 41.2904C26.3939 42.0603 29.4974 42.4843 32.7829 42.4843C33.2561 42.4843 33.7267 42.4751 34.192 42.4574C34.1826 42.6556 34.1773 42.8548 34.1773 43.0552C34.1763 44.3183 34.3673 45.5742 34.7438 46.7799C34.1012 46.816 33.4457 46.8346 32.7829 46.8346C29.7229 46.8346 26.8612 46.4493 24.7249 45.7497C22.7399 45.0997 22 44.3555 22 44.0391ZM24.7252 39.2117C26.8611 39.9115 29.7228 40.2968 32.7831 40.2968C33.3602 40.2968 33.9323 40.2815 34.4942 40.2536C34.8678 38.6317 35.5628 37.1011 36.5381 35.7524C35.2907 35.8815 34.0374 35.9455 32.7833 35.9441C29.4983 35.9441 26.3948 35.5203 24.0446 34.7506C23.3368 34.5272 22.6521 34.2363 22 33.8818V37.499C22 37.816 22.7399 38.5612 24.7252 39.2117ZM24.7252 32.6717C26.8615 33.3714 29.7232 33.7566 32.7832 33.7566C35.0439 33.7566 37.2093 33.5452 39.0654 33.1453C40.4013 32.1143 41.9325 31.3652 43.5663 30.9434V27.3439C42.9144 27.6983 42.2299 27.9892 41.5223 28.2126C39.1719 28.9825 36.0684 29.4063 32.7831 29.4063C29.4978 29.4063 26.3945 28.9825 24.0443 28.2128C23.3366 27.9893 22.652 27.6983 22 27.3439L22 30.961C22 31.2774 22.7399 32.0216 24.7251 32.6717H24.7252ZM24.7252 26.1338C26.8614 26.8334 29.7231 27.2188 32.7831 27.2188C35.843 27.2188 38.7048 26.8336 40.841 26.1339C42.8263 25.4837 43.5661 24.7394 43.5661 24.4232C43.5661 24.107 42.8263 23.3627 40.841 22.7125C38.7048 22.0127 35.8428 21.6274 32.7831 21.6274C29.7234 21.6274 26.8614 22.0127 24.7251 22.7124C22.7399 23.3625 22 24.1067 22 24.4229C22 24.7392 22.7399 25.4836 24.7251 26.1338H24.7252ZM57 43.0552C57 48.7443 52.3716 53.3727 46.6825 53.3727C40.9934 53.3727 36.365 48.7443 36.365 43.0552C36.365 37.3662 40.9934 32.7378 46.6825 32.7378C52.3716 32.7378 57 37.3662 57 43.0552ZM50.6642 40.5033C50.6642 38.8394 49.4414 37.4332 47.7763 36.9965V35.2852H45.5888V36.9964C43.9224 37.4329 42.6987 38.8392 42.6987 40.5032C42.6987 41.7542 43.1679 42.6981 44.0932 43.3079C44.8084 43.7792 45.6461 43.9553 46.4563 44.1255C48.1933 44.4906 48.4765 44.6983 48.4765 45.6071C48.4765 46.4124 47.6716 47.0675 46.6823 47.0675C45.6918 47.0675 44.886 46.4124 44.886 45.6071V44.5133H42.6985V45.6071C42.6985 47.2712 43.9221 48.6777 45.5886 49.1139V50.8251H47.7761V49.1143C49.4412 48.6777 50.664 47.2714 50.664 45.6075C50.664 44.3565 50.1948 43.4127 49.2694 42.8029C48.5543 42.3316 47.7165 42.1555 46.9064 41.9853C45.1694 41.6201 44.8862 41.4124 44.8862 40.5037C44.8862 39.6984 45.692 39.0433 46.6825 39.0433C47.6718 39.0433 48.4767 39.6984 48.4767 40.5037V41.5974H50.6642V40.5033ZM35.637 48.9124C34.7092 48.985 33.7528 49.0223 32.7831 49.0223C29.498 49.0223 26.3945 48.5984 24.0443 47.8287C23.3366 47.6053 22.652 47.3143 22 46.9599L22 50.5772C22 50.8936 22.7399 51.6378 24.7251 52.2879C26.8614 52.9876 29.7231 53.3729 32.7831 53.3729C34.9544 53.3729 37.0629 53.1713 38.8597 52.8036C37.5336 51.7376 36.4373 50.4139 35.637 48.9124Z" fill="white"/>
</g>
<defs>
<linearGradient id="paint0_linear_4161_2040" x1="38" y1="-5" x2="38" y2="83.5" gradientUnits="userSpaceOnUse">
<stop offset="0.0390253" stop-color="#54D8FC"/>
<stop offset="1" stop-color="#0058B3"/>
</linearGradient>
<clipPath id="clip0_4161_2040">
<rect width="35" height="35" fill="white" transform="translate(22 20)"/>
</clipPath>
</defs>
</svg>
