<svg width="65" height="65" viewBox="0 0 65 65" fill="none" xmlns="http://www.w3.org/2000/svg">
<circle cx="41" cy="41" r="24" fill="#D6E7FB"/>
<g clip-path="url(#clip0_2266_1989)">
<path d="M14.7615 35.1926C14.8548 35.291 14.9703 35.3493 15.0457 35.3829C14.5982 36.2525 14.3445 37.2378 14.3445 38.2812C14.3445 39.3486 14.6099 40.355 15.0767 41.2389C13.4856 42.0469 12.3914 43.6997 12.3914 45.6055C12.3914 47.0222 12.7702 48.3526 13.4314 49.5H5.37183C4.86157 49.5 4.43967 49.1029 4.40874 48.5934C4.40874 48.5934 4.40874 48.5934 4.40873 48.5934L2.39353 15.3438H29.8345L29.6582 18.25H25.0984C18.0912 18.25 12.3914 23.9499 12.3914 30.957C12.3914 32.7059 13.3134 34.2403 14.6925 35.1053C14.7156 35.1407 14.7399 35.1698 14.7615 35.1926Z" stroke="#161C2D"/>
<path d="M18.3987 8.71125L17.8945 9.48438H18.8175H30.7617C31.2947 9.48438 31.7266 9.91626 31.7266 10.4492C31.7266 10.9822 31.2947 11.4141 30.7617 11.4141H16.1152C16.1137 11.4141 16.1123 11.4141 16.1108 11.4141C16.1094 11.4141 16.1079 11.4141 16.1064 11.4141H1.46484C0.931889 11.4141 0.5 10.9822 0.5 10.4492C0.5 9.91626 0.931889 9.48438 1.46484 9.48438H15.3198H15.5907L15.7386 9.25751L21.1647 0.937655L21.1648 0.937407C21.3425 0.664669 21.6463 0.5 21.9727 0.5H27.832C28.365 0.5 28.7969 0.931889 28.7969 1.46484C28.7969 1.9978 28.365 2.42969 27.832 2.42969H22.7661H22.4953L22.3473 2.65656L18.3987 8.71125ZM16.0313 11.4211C16.0311 11.4211 16.0312 11.4211 16.0315 11.421L16.0313 11.4211Z" stroke="#161C2D"/>
<path d="M17.2852 31.9219C16.7522 31.9219 16.3203 31.49 16.3203 30.957C16.3203 26.1177 20.2583 22.1797 25.0977 22.1797H40.7227C45.562 22.1797 49.5 26.1177 49.5 30.957C49.5 31.49 49.0681 31.9219 48.5352 31.9219H17.2852Z" stroke="#161C2D"/>
<path d="M18.2734 38.2812C18.2734 36.9392 19.3611 35.8516 20.7031 35.8516H45.1172C46.4592 35.8516 47.5469 36.9392 47.5469 38.2812C47.5469 39.6233 46.4592 40.7109 45.1172 40.7109H20.7031C19.3611 40.7109 18.2734 39.6233 18.2734 38.2812Z" stroke="#161C2D"/>
<path d="M17.2852 44.6406H48.5352C49.0681 44.6406 49.5 45.0725 49.5 45.6055C49.5 47.7524 47.7524 49.5 45.6055 49.5H20.2148C18.0679 49.5 16.3203 47.7524 16.3203 45.6055C16.3203 45.0725 16.7522 44.6406 17.2852 44.6406Z" stroke="#161C2D"/>
</g>
<defs>
<clipPath id="clip0_2266_1989">
<rect width="50" height="50" fill="white"/>
</clipPath>
</defs>
</svg>
