<svg width="902" height="442" viewBox="0 0 902 442" fill="none" xmlns="http://www.w3.org/2000/svg">
<path d="M902 371.601C902 332.941 870.665 301.605 832.004 301.605C822.027 301.605 812.561 303.724 803.967 307.488C794.463 254.11 747.922 213.549 691.817 213.549C688.737 213.549 685.709 213.767 682.689 214.007C685.394 206.592 686.949 198.629 686.949 190.275C686.949 152.035 655.944 121.03 617.705 121.03C600.283 121.03 584.408 127.514 572.238 138.137C537.341 88.1322 479.418 55.3843 413.81 55.3843C324.822 55.3843 249.936 115.599 227.563 197.487C214.881 181.402 195.266 171.035 173.193 171.035C138.072 171.035 109.125 197.209 104.625 231.106C87.0529 220.048 66.3179 213.549 44.0277 213.549C-18.9437 213.549 -70 264.598 -70 327.577C-70 389.496 -20.619 439.771 40.8949 441.439L40.8724 441.597H832.004C838.405 441.597 843.168 441.041 846.677 440.027C878.282 433.28 902 405.22 902 371.601Z" fill="url(#paint0_linear_2226_1786)"/>
<path d="M-22.9335 110.767H118.906C136.08 110.767 150.009 96.8462 150.009 79.6646C150.009 62.4906 136.08 48.5622 118.906 48.5622C110.447 48.5622 102.791 51.9653 97.1869 57.4496C97.217 56.7584 97.2921 56.0823 97.2921 55.3837C97.2921 24.792 72.4927 0 41.9085 0C13.0447 0 -10.6353 22.0799 -13.2196 50.2675C-16.2923 49.2533 -19.5228 48.5622 -22.9335 48.5622C-40.1076 48.5622 -54.0361 62.4831 -54.0361 79.6646C-54.0361 96.8462 -40.1151 110.767 -22.9335 110.767Z" fill="url(#paint1_linear_2226_1786)"/>
<defs>
<linearGradient id="paint0_linear_2226_1786" x1="744" y1="226.5" x2="730" y2="358.5" gradientUnits="userSpaceOnUse">
<stop stop-color="#F6F8F9"/>
<stop offset="1" stop-color="white"/>
</linearGradient>
<linearGradient id="paint1_linear_2226_1786" x1="9.5" y1="-19.5" x2="163.5" y2="140.5" gradientUnits="userSpaceOnUse">
<stop stop-color="white" stop-opacity="0"/>
<stop offset="1" stop-color="white"/>
</linearGradient>
</defs>
</svg>
