<svg width="65" height="65" viewBox="0 0 65 65" fill="none" xmlns="http://www.w3.org/2000/svg">
<circle cx="41" cy="41" r="24" fill="#D6E7FB"/>
<path d="M6.8252 23.7167H25.7169V26.1667H6.8252V23.7167Z" stroke="#161C2D"/>
<path d="M6.8252 33.9417H25.7169V36.3833H6.8252V33.9417Z" stroke="#161C2D"/>
<path d="M6.8252 28.8333H25.7169V31.275H6.8252V28.8333Z" stroke="#161C2D"/>
<path d="M25.7169 39.05V42.25C25.7169 43.9489 24.3324 45.3334 22.6335 45.3334H9.9002C8.20285 45.3334 6.8252 43.9504 6.8252 42.25V39.05H25.7169Z" stroke="#161C2D"/>
<path d="M43.0888 27.6768L43.0887 27.6769L43.0965 27.6855C43.1584 27.7539 43.1881 27.8451 43.1785 27.9373C43.1785 27.9376 43.1784 27.938 43.1784 27.9384L41.2456 45.0333C41.2456 45.0336 41.2456 45.0338 41.2455 45.0341C41.2248 45.2063 41.0806 45.3333 40.9089 45.3333H31.9589C31.7872 45.3333 31.6429 45.2063 31.6222 45.0341C31.6222 45.0338 31.6222 45.0336 31.6221 45.0333L29.6894 27.9384C29.6893 27.938 29.6893 27.9377 29.6893 27.9373C29.6797 27.8451 29.7094 27.7539 29.7713 27.6855L29.7714 27.6856L29.779 27.6768C29.8397 27.6065 29.9251 27.5667 30.0256 27.5667H42.8422C42.9427 27.5667 43.0281 27.6065 43.0888 27.6768ZM41.4756 33.075H41.9223L41.9724 32.6311L42.4057 28.7894L42.4685 28.2333H41.9089H30.9506H30.3898L30.4538 28.7905L30.8955 32.6321L30.9464 33.075H31.3922H41.4756Z" stroke="#161C2D"/>
<path d="M7.24046 16.6915L7.24046 16.6915L7.24166 16.6902L10.0016 13.7167H22.54L25.2999 16.698L25.3013 16.6995C25.5652 16.9822 25.7169 17.3603 25.7169 17.7583V21.05H6.8252V17.7583C6.8252 17.3564 6.97122 16.9795 7.24046 16.6915Z" stroke="#161C2D"/>
<path d="M21.9255 5.00002V10.7167C21.9255 10.8989 21.7744 11.05 21.5922 11.05H10.9505C10.7683 11.05 10.6172 10.8989 10.6172 10.7167V5.00002C10.6172 4.81783 10.7683 4.66669 10.9505 4.66669H21.5922C21.7744 4.66669 21.9255 4.81783 21.9255 5.00002Z" stroke="#161C2D"/>
</svg>
